<svg id="Layer_1" data-name="Layer 1" xmlns="http://www.w3.org/2000/svg" viewBox="0 0 38.3 63.57"><defs><style>.cls-1{fill:#ec8923;}.cls-2{fill:#939598;}.cls-2,.cls-3{stroke:#fff;stroke-miterlimit:10;stroke-width:3px;}.cls-3{fill:#636466;}</style></defs><title>icon-launch</title><g id="flames"><path class="cls-1" d="M37.77,61.1a.83.83,0,0,0,1.39-.37,17.86,17.86,0,0,0-.41-10.6L32,55.43Z" transform="translate(-12.85 -0.25)"/><path class="cls-1" d="M26.23,61.1a.83.83,0,0,1-1.39-.37,17.86,17.86,0,0,1,.41-10.6L32,55.43Z" transform="translate(-12.85 -0.25)"/><path class="cls-1" d="M31.29,63.4a.83.83,0,0,0,1.43,0c.88-1.49,1.77-3.11,2.63-4.87a65,65,0,0,0,3.4-8.41H25.25a67.63,67.63,0,0,0,3.34,8.24C29.47,60.19,30.38,61.87,31.29,63.4Z" transform="translate(-12.85 -0.25)"/></g><g id="rocket"><path class="cls-2" d="M38.49,24.27V51.93H48.77a.87.87,0,0,0,.74-1.33A22.31,22.31,0,0,0,45,45.44C42.53,43.43,40.14,24.88,38.49,24.27Z" transform="translate(-12.85 -0.25)"/><path class="cls-2" d="M25.51,24.27V51.93H15.23a.87.87,0,0,1-.74-1.33A22.31,22.31,0,0,1,19,45.44C21.47,43.43,23.86,24.88,25.51,24.27Z" transform="translate(-12.85 -0.25)"/><rect class="cls-2" x="12.66" y="16.31" width="12.97" height="35.37"/><path class="cls-3" d="M37.33,8.06,33.27,2.4a1.56,1.56,0,0,0-2.54,0L26.67,8.06a6.26,6.26,0,0,0-1.16,3.61v4.88h13V11.67A6.26,6.26,0,0,0,37.33,8.06Z" transform="translate(-12.85 -0.25)"/></g></svg>