<svg id="Layer_1" data-name="Layer 1" xmlns="http://www.w3.org/2000/svg" viewBox="0 0 63.75 63.75"><defs><style>.cls-1{fill:#e57e25;}.cls-2{fill:#fff;}.cls-3{fill:#bc6828;}.cls-4{fill:#a55c26;}</style></defs><title>icon-mars</title><circle class="cls-1" cx="31.88" cy="31.87" r="31.5"/><path class="cls-2" d="M32,.88A31.12,31.12,0,1,1,.88,32,31.16,31.16,0,0,1,32,.88m0-.75A31.87,31.87,0,1,0,63.88,32,31.87,31.87,0,0,0,32,.13Z" transform="translate(-0.13 -0.13)"/><circle class="cls-3" cx="17.98" cy="39.65" r="5.66"/><circle class="cls-3" cx="26.51" cy="13.96" r="2.87"/><circle class="cls-3" cx="49.24" cy="29.29" r="5.41"/><path class="cls-4" d="M61.86,32c0-16.7-14-30.26-31.3-30.55C42.84,4.52,52,17,52,32S42.84,59.48,30.56,62.55C47.9,62.26,61.86,48.7,61.86,32Z" transform="translate(-0.13 -0.13)"/><path class="cls-2" d="M32,3.11A28.89,28.89,0,1,1,3.11,32,28.92,28.92,0,0,1,32,3.11m0-3A31.87,31.87,0,1,0,63.88,32,31.87,31.87,0,0,0,32,.13Z" transform="translate(-0.13 -0.13)"/></svg>