<svg id="Layer_2" data-name="Layer 2" xmlns="http://www.w3.org/2000/svg" xmlns:xlink="http://www.w3.org/1999/xlink" viewBox="0 0 54.96 61.03"><defs><style>.cls-1{fill:#b6893a;}.cls-1,.cls-6{stroke:#fff;stroke-miterlimit:10;stroke-width:2px;}.cls-2{fill:#b7893a;}.cls-3{fill:#fff;}.cls-4{fill:url(#linear-gradient);}.cls-5{fill:#231f20;}.cls-6{fill:none;stroke-linecap:round;}</style><linearGradient id="linear-gradient" x1="32" y1="30.36" x2="32" y2="56.03" gradientUnits="userSpaceOnUse"><stop offset="0" stop-color="#9ec7ea"/><stop offset="1" stop-color="#3e4669"/></linearGradient></defs><title>icon-videos</title><ellipse class="cls-1" cx="27.48" cy="25.72" rx="7.7" ry="6.73"/><path class="cls-2" d="M32.14,61c-7.2,0-14.48-.33-21.64-1a3.28,3.28,0,0,1-2-.75,2.8,2.8,0,0,1-1-1.9A68.85,68.85,0,0,1,7.5,29a2.78,2.78,0,0,1,1-1.9,3.24,3.24,0,0,1,2-.75c7-.61,14.13-.92,21.17-.93h.46c7.2,0,14.49.31,21.65.93a3.32,3.32,0,0,1,2,.75,2.79,2.79,0,0,1,1,1.94A86.16,86.16,0,0,1,58,43.06a86.63,86.63,0,0,1-1.19,14.28c-.11,1.24-1.41,2-2.41,2.52l-.25.12-.28,0c-7.12.66-14.36,1-21.54,1Z" transform="translate(-4.52 -1.49)"/><path class="cls-3" d="M32.15,26.88c7.82,0,15,.36,21.56.93a1.84,1.84,0,0,1,1.13.39,1.28,1.28,0,0,1,.46,1,84.37,84.37,0,0,1,1.18,13.9A84.6,84.6,0,0,1,55.3,57.17c0,.09,0,.56-1.59,1.34-6.42.6-13.6,1-21.4,1h-.16c-7.87,0-15.1-.39-21.57-1a1.82,1.82,0,0,1-1.12-.39A1.24,1.24,0,0,1,9,57.17,67.82,67.82,0,0,1,7.52,43.33,67.1,67.1,0,0,1,9,29.16a1.27,1.27,0,0,1,.46-1,1.77,1.77,0,0,1,1.12-.39c6.4-.56,13.47-.92,21.11-.93h.46m0-3h-.47c-7.07,0-14.22.32-21.26.93a4.76,4.76,0,0,0-2.9,1.11A4.27,4.27,0,0,0,6,28.74,70.05,70.05,0,0,0,6,57.58a4.27,4.27,0,0,0,1.5,2.83,4.78,4.78,0,0,0,2.88,1.1c7.2.67,14.51,1,21.75,1h.17c7.21,0,14.5-.34,21.67-1l.56,0,.5-.25c.76-.38,3-1.49,3.23-3.67a87.93,87.93,0,0,0,1.2-14.47,88.25,88.25,0,0,0-1.19-14.23,4.27,4.27,0,0,0-1.51-2.91,4.78,4.78,0,0,0-2.9-1.11c-7.19-.62-14.5-.93-21.73-.93Z" transform="translate(-4.52 -1.49)"/><path class="cls-4" d="M32.11,56c-5.84,0-11.75-.28-17.56-.82a1,1,0,0,1-.64-.2.55.55,0,0,1-.21-.4v-.1a54.62,54.62,0,0,1,0-22.68v-.11a.53.53,0,0,1,.21-.39.92.92,0,0,1,.59-.21c5.74-.49,11.53-.75,17.24-.76h.39c5.84,0,11.75.26,17.57.76a1,1,0,0,1,.63.21.51.51,0,0,1,.21.39,69.62,69.62,0,0,1,1,11.37,68.56,68.56,0,0,1-1,11.44s-.11.27-.94.69c-5.74.53-11.58.8-17.34.81Z" transform="translate(-4.52 -1.49)"/><path class="cls-5" d="M32.12,30.86c5.83,0,11.73.26,17.54.76h.08a.59.59,0,0,1,.3.1v.17a66.85,66.85,0,0,1,1,11.2,68.59,68.59,0,0,1-.93,11.25,3.18,3.18,0,0,1-.61.39c-5.69.53-11.48.79-17.2.8h-.14c-5.83,0-11.73-.28-17.53-.81H14.5a.53.53,0,0,1-.3-.1v-.1l0-.11a54.07,54.07,0,0,1,0-22.47l.05-.12v-.1a.46.46,0,0,1,.27-.09h.09c5.68-.49,11.45-.75,17.16-.76h.37m0-1h-.38c-6.24,0-12,.31-17.24.76a1.43,1.43,0,0,0-.92.33,1,1,0,0,0-.38.77,55.17,55.17,0,0,0,0,22.89,1,1,0,0,0,.38.78,1.51,1.51,0,0,0,.92.32c5.29.49,11.19.82,17.62.82h.14c6.37,0,12.23-.33,17.48-.82,1.29-.64,1.3-1,1.3-1.1a68.46,68.46,0,0,0,1-11.52,70.09,70.09,0,0,0-1-11.37,1,1,0,0,0-.38-.77,1.46,1.46,0,0,0-.92-.33c-5.33-.46-11.23-.76-17.62-.76Z" transform="translate(-4.52 -1.49)"/><line class="cls-6" x1="21.86" y1="20.2" x2="9.09" y2="1"/><line class="cls-6" x1="33.09" y1="20.2" x2="45.86" y2="1"/></svg>