<svg id="Layer_1" data-name="Layer 1" xmlns="http://www.w3.org/2000/svg" viewBox="0 0 60.78 60.63"><defs><style>.cls-1,.cls-3{fill:#fff;}.cls-2,.cls-4{fill:#c2b59b;}.cls-3{stroke:#fff;}.cls-3,.cls-4{stroke-miterlimit:10;stroke-width:3px;}.cls-4{stroke:#414042;stroke-linecap:round;}</style></defs><title>icon-contact</title><rect class="cls-1" x="1.5" y="24.41" width="57.78" height="34.71"/><path class="cls-1" d="M59.39,27.6V59.31H4.61V27.6H59.39m3-3H1.61V62.31H62.39V24.6Z" transform="translate(-1.61 -1.69)"/><polygon class="cls-2" points="4.48 21.41 30.39 1.88 56.3 21.41 4.48 21.41"/><path class="cls-1" d="M32,5.44,53.43,21.6H10.57L32,5.44m0-3.75L1.61,24.6H62.39L32,1.69Z" transform="translate(-1.61 -1.69)"/><rect class="cls-3" x="7.63" y="14.68" width="45.52" height="35.96"/><line class="cls-4" x1="12.49" y1="21.94" x2="48.29" y2="21.94"/><line class="cls-4" x1="12.49" y1="28.22" x2="48.29" y2="28.22"/><polygon class="cls-2" points="5.26 59.13 59.28 25.61 59.28 59.13 5.26 59.13"/><path class="cls-1" d="M59.39,30V59.31H12.13L59.39,30m3-5.39L1.61,62.31H62.39V24.6Z" transform="translate(-1.61 -1.69)"/><polygon class="cls-2" points="1.5 59.13 1.5 25.61 55.52 59.13 1.5 59.13"/><path class="cls-1" d="M4.61,30,51.87,59.31H4.61V30m-3-5.39V62.31H62.39L1.61,24.6Z" transform="translate(-1.61 -1.69)"/><polygon class="cls-2" points="3.93 59.13 30.39 35.51 56.85 59.13 3.93 59.13"/><path class="cls-1" d="M32,39.21l22.52,20.1h-45L32,39.21m0-4L1.61,62.31H62.39L32,35.19Z" transform="translate(-1.61 -1.69)"/></svg>