<svg id="Layer_1" data-name="Layer 1" xmlns="http://www.w3.org/2000/svg" viewBox="0 0 63.74 63.76"><defs><style>.cls-1{fill:#e57e25;}.cls-2{fill:#fff;}.cls-3{fill:#bc6828;}.cls-4{fill:#a55c26;}.cls-5{fill:none;stroke:#000;stroke-miterlimit:10;stroke-width:5px;}</style></defs><title>icon-mars-arrow</title><circle class="cls-1" cx="31.87" cy="31.89" r="31.5"/><path class="cls-2" d="M31.87.75A31.12,31.12,0,1,1,.75,31.87h0A31.15,31.15,0,0,1,31.87.75m0-.75A31.87,31.87,0,1,0,63.75,31.87,31.87,31.87,0,0,0,31.87,0Z" transform="translate(-0.01 0.02)"/><circle class="cls-3" cx="17.97" cy="39.67" r="5.66"/><circle class="cls-3" cx="26.5" cy="13.98" r="2.87"/><circle class="cls-3" cx="49.23" cy="29.31" r="5.41"/><path class="cls-4" d="M61.73,31.87c0-16.7-14-30.26-31.3-30.55C42.71,4.39,51.87,16.87,51.87,31.87S42.71,59.35,30.43,62.42C47.77,62.13,61.73,48.57,61.73,31.87Z" transform="translate(-0.01 0.02)"/><path class="cls-2" d="M31.87,3A28.89,28.89,0,1,1,3,31.87,28.88,28.88,0,0,1,31.87,3m0-3A31.87,31.87,0,1,0,63.75,31.87,31.87,31.87,0,0,0,31.87,0h0Z" transform="translate(-0.01 0.02)"/><line class="cls-5" x1="51.49" y1="21.27" x2="30.24" y2="42.52"/><line class="cls-5" x1="12.24" y1="21.27" x2="33.49" y2="42.52"/></svg>