<svg id="Layer_1" data-name="Layer 1" xmlns="http://www.w3.org/2000/svg" viewBox="0 0 63.08 56.72"><defs><style>.cls-1{fill:#ed1c24;}.cls-2{fill:#fff;}.cls-3{fill:none;stroke:#fff;stroke-miterlimit:10;stroke-width:3px;}</style></defs><title>icon-falcon</title><path class="cls-1" d="M33.39,58.18a23,23,0,0,1-10.73-9.6l-.78-1.34-1.32.83a30,30,0,0,1-6.75,3.15,29.52,29.52,0,0,1-3,.79,21.05,21.05,0,0,1-.67-3,22,22,0,0,1,.75-9.57l.56-1.83L9.5,37.49l-.73,0A16.2,16.2,0,0,0,2,39.08a15.2,15.2,0,0,1,.35-3.15,15.58,15.58,0,0,1,4.78-8.1l1.34-1.22L7,25.52a5.71,5.71,0,0,0-3.52-1.08H3.35C8,13,18.79,5.14,30.3,5.14l1,0c10.23.4,16.16,6.49,19.33,11.52a7.23,7.23,0,0,0,3.93,3.05c2.06.66,4.83,1.86,6.27,3.82,1.61,2.19,1.6,6.46,0,11.63l-.54-.49c-2.13-1.91-5.34-4.8-10.41-4.8h-.53a11.4,11.4,0,0,0-4.92,1.16,11.46,11.46,0,0,0-5.05,5.6C36.14,44.41,33.75,53.11,33.39,58.18Z" transform="translate(-0.46 -3.64)"/><path class="cls-2" d="M30.3,6.64l.94,0c9.58.37,15.14,6.09,18.12,10.82a8.72,8.72,0,0,0,4.74,3.68c2.62.84,4.58,2,5.52,3.28,1.07,1.45,1.19,4.41.4,8a15.14,15.14,0,0,0-10.11-4h-.59a12.8,12.8,0,0,0-5.56,1.33l-.07,0-.07,0A12.85,12.85,0,0,0,38,36.08a88.42,88.42,0,0,0-5.9,19.8,21.82,21.82,0,0,1-2.52-1.65A21.57,21.57,0,0,1,24,47.83l-1.56-2.69L19.76,46.8a28.11,28.11,0,0,1-6.41,3c-.49.16-1,.3-1.5.43-.11-.47-.19-.95-.26-1.43a20.43,20.43,0,0,1,.7-8.93L13.4,36.2,9.58,36c-.27,0-.54,0-.81,0a16.67,16.67,0,0,0-5.1.82c0-.18.07-.36.11-.54A14.08,14.08,0,0,1,8.1,28.94l2.68-2.44-2.9-2.18a6.87,6.87,0,0,0-2.34-1.13C10.33,13.27,20,6.64,30.3,6.64m0-3c-12.77,0-24.84,9-29.22,22.66a8.72,8.72,0,0,1,2.38-.36,4.23,4.23,0,0,1,2.62.78A17.23,17.23,0,0,0,.85,35.61a16.48,16.48,0,0,0-.23,5.87A15.92,15.92,0,0,1,8.77,39h.65a23.61,23.61,0,0,0-.8,10.23,22.52,22.52,0,0,0,1.13,4.5,31.15,31.15,0,0,0,4.51-1.07,31.37,31.37,0,0,0,7.1-3.31,24.69,24.69,0,0,0,13.53,11c-.42-3.67,1.91-13.66,5.9-23.11a10,10,0,0,1,4.36-4.87,10.09,10.09,0,0,1,4.29-1h.47c6.4,0,9.41,5.16,11.73,6.2.19-.58,3.91-10.16.4-14.93-1.73-2.34-4.9-3.68-7-4.36a5.72,5.72,0,0,1-3.11-2.42A25.09,25.09,0,0,0,31.36,3.66l-1.06,0Z" transform="translate(-0.46 -3.64)"/><path class="cls-3" d="M40.68,19.49l-6.81-2.08.34.76a5,5,0,0,0,6.54,2.49A.63.63,0,0,0,40.68,19.49Z" transform="translate(-0.46 -3.64)"/></svg>